<svg xmlns="http://www.w3.org/2000/svg" width="482" height="320" viewBox="0 0 482 320"><defs><style>.a{fill:#141414;}.b,.d{fill:none;}.b{stroke:#000;stroke-width:2px;}.c{stroke:none;}</style></defs><g transform="translate(-116 -164)"><path class="a" d="M66.375-65.508v3.984q.469,20.039,4.395,28.184T87.586-25.2q12.773,0,16.875-8.906,2.461-5.273,2.461-17.812v-120.82h36.094V-52.5q0,22.031-7.617,34.922-12.891,21.8-46.523,21.8T43.758-13.418Q32.273-31.055,32.273-61.523v-3.984Zm132.609.234h43.828L221.25-133.242Zm2.227-107.461h40.781L303.164,0H264.023L252.891-35.508H189.258L177.3,0H139.57Zm106.281,0h37.852L394.133-52.148V-172.734h33.633V0H391.672L341.125-122.7V0H307.492Z" transform="translate(127 408)"/><g class="b" transform="translate(116 164)"><rect class="c" width="482" height="320"/><rect class="d" x="1" y="1" width="480" height="318"/></g></g></svg>