<?xml version="1.0" standalone="no"?>
<!DOCTYPE svg PUBLIC "-//W3C//DTD SVG 20010904//EN"
 "http://www.w3.org/TR/2001/REC-SVG-20010904/DTD/svg10.dtd">
<svg version="1.0" xmlns="http://www.w3.org/2000/svg"
 width="964.000000pt" height="964.000000pt" viewBox="0 0 964.000000 964.000000"
 preserveAspectRatio="xMidYMid meet">
<metadata>
Created by potrace 1.11, written by Peter Selinger 2001-2013
</metadata>
<g transform="translate(0.000000,964.000000) scale(0.100000,-0.100000)"
fill="#000000" stroke="none">
<path d="M0 4820 l0 -3200 4820 0 4820 0 0 3200 0 3200 -4820 0 -4820 0 0
-3200z m9602 3129 c3 -16 1 -32 -3 -35 -4 -2 -4 -17 1 -33 4 -15 4 -34 0 -41
-5 -7 -4 -23 0 -36 5 -12 6 -25 3 -28 -7 -7 -7 -111 0 -123 3 -5 2 -15 -3 -22
-4 -8 -4 -27 0 -42 5 -16 5 -29 0 -29 -5 0 -5 -13 0 -30 5 -17 5 -30 0 -30 -5
0 -5 -13 0 -30 5 -17 5 -30 0 -30 -5 0 -5 -13 0 -30 5 -17 5 -30 0 -30 -5 0
-5 -13 0 -30 5 -17 5 -30 0 -30 -5 0 -5 -13 0 -30 5 -17 5 -30 0 -30 -5 0 -5
-13 0 -30 5 -17 5 -30 0 -30 -5 0 -5 -13 0 -30 5 -17 5 -30 0 -30 -5 0 -5 -13
0 -30 5 -17 5 -30 0 -30 -5 0 -5 -13 0 -30 5 -17 5 -30 0 -30 -5 0 -5 -13 0
-30 5 -17 5 -30 0 -30 -5 0 -5 -13 0 -30 5 -17 5 -30 0 -30 -5 0 -5 -13 0 -30
5 -17 5 -30 0 -30 -5 0 -5 -13 0 -30 5 -17 5 -30 0 -30 -5 0 -5 -13 0 -30 5
-17 5 -30 0 -30 -5 0 -5 -13 0 -30 5 -17 5 -30 0 -30 -5 0 -5 -13 0 -29 4 -15
4 -34 0 -42 -5 -7 -5 -20 0 -29 5 -9 5 -22 0 -30 -5 -8 -6 -18 -3 -24 8 -12 7
-105 -1 -113 -3 -3 -1 -13 4 -22 5 -10 5 -23 0 -31 -4 -7 -5 -23 0 -34 4 -12
4 -30 0 -41 -4 -11 -4 -27 1 -36 4 -8 4 -21 -1 -29 -4 -7 -4 -24 0 -36 6 -14
5 -26 0 -29 -5 -3 -5 -18 0 -35 5 -17 5 -30 0 -30 -5 0 -7 -6 -4 -13 8 -23 9
-127 1 -127 -5 0 -5 -5 -2 -10 7 -11 7 -71 2 -120 -2 -14 0 -37 4 -52 4 -16 5
-28 1 -28 -4 0 -7 -16 -7 -35 0 -19 3 -35 7 -35 4 0 3 -13 -2 -30 -5 -17 -5
-30 0 -30 5 0 5 -13 0 -30 -5 -17 -5 -30 0 -30 5 0 5 -13 0 -30 -5 -17 -5 -30
0 -30 5 0 5 -13 0 -30 -5 -16 -6 -30 -2 -30 4 0 6 -46 4 -102 -1 -57 -2 -109
-2 -115 0 -7 0 -20 0 -28 0 -8 0 -22 0 -30 0 -8 0 -22 0 -30 0 -8 0 -22 0 -30
0 -8 0 -22 0 -30 0 -8 0 -22 0 -30 0 -8 0 -22 0 -30 0 -8 0 -22 0 -30 0 -8 0
-22 0 -30 0 -8 0 -22 0 -30 0 -8 0 -22 0 -30 0 -8 0 -22 0 -30 0 -8 0 -22 0
-30 0 -8 0 -22 0 -30 0 -8 0 -22 0 -30 0 -8 0 -22 0 -30 0 -8 0 -22 0 -30 0
-8 0 -22 0 -30 0 -8 0 -22 0 -30 0 -8 0 -23 0 -32 0 -10 0 -40 1 -66 1 -27 -1
-51 -5 -54 -3 -3 -1 -13 4 -22 5 -10 5 -23 0 -31 -4 -7 -5 -23 0 -34 4 -12 4
-30 0 -41 -4 -11 -4 -27 1 -36 4 -8 4 -21 -1 -29 -4 -7 -4 -24 0 -36 6 -14 5
-26 0 -29 -5 -3 -5 -18 0 -35 5 -17 5 -30 0 -30 -5 0 -7 -6 -4 -13 8 -23 9
-127 1 -127 -5 0 -5 -5 -2 -10 6 -10 7 -47 3 -130 -1 -20 1 -42 4 -51 3 -9 3
-22 -2 -29 -4 -7 -4 -26 0 -41 5 -16 5 -29 0 -29 -5 0 -5 -13 0 -30 5 -17 5
-30 0 -30 -5 0 -5 -13 0 -30 5 -17 5 -30 0 -30 -5 0 -5 -13 0 -30 5 -17 5 -30
0 -30 -5 0 -5 -13 0 -30 5 -17 5 -30 0 -30 -5 0 -5 -13 0 -30 5 -17 5 -30 0
-30 -5 0 -5 -13 0 -30 5 -17 5 -30 0 -30 -5 0 -5 -13 0 -30 5 -17 5 -30 0 -30
-5 0 -5 -13 0 -30 5 -17 5 -30 0 -30 -5 0 -5 -13 0 -30 5 -17 5 -30 0 -30 -5
0 -5 -13 0 -30 5 -17 5 -30 0 -30 -5 0 -5 -13 0 -30 5 -17 5 -30 0 -30 -5 0
-5 -13 0 -30 5 -17 5 -30 0 -30 -5 0 -5 -13 0 -30 5 -17 5 -30 0 -30 -5 0 -5
-13 0 -30 5 -17 5 -30 0 -30 -5 0 -5 -13 0 -30 5 -17 5 -30 0 -30 -5 0 -5 -13
0 -29 4 -15 4 -34 0 -42 -5 -7 -5 -20 0 -29 5 -9 5 -22 0 -30 -5 -8 -6 -18 -3
-24 8 -12 7 -105 -1 -113 -3 -3 -1 -13 4 -22 5 -10 5 -23 0 -31 -4 -7 -5 -23
0 -34 4 -12 4 -30 0 -41 -4 -11 -4 -27 1 -36 4 -8 4 -21 -1 -29 -4 -7 -4 -24
0 -36 6 -14 5 -26 0 -29 -5 -3 -5 -18 0 -35 5 -17 5 -30 0 -30 -5 0 -7 -6 -4
-13 8 -23 9 -127 1 -127 -5 0 -5 -5 -2 -10 6 -10 7 -62 2 -125 -1 -16 0 -39 4
-50 3 -11 3 -29 -1 -40 -4 -11 -4 -30 1 -42 5 -13 4 -25 -1 -28 -5 -3 -6 -15
0 -29 4 -12 4 -29 0 -36 -5 -8 -5 -21 -1 -29 21 -40 10 -41 -277 -42 -153 0
-284 0 -292 -1 -8 0 -62 0 -120 1 -58 0 -112 0 -120 0 -8 -1 -170 -1 -360 -1
-190 1 -352 1 -360 0 -8 0 -62 0 -120 1 -58 0 -112 0 -120 0 -8 -1 -98 -1
-200 0 -102 0 -192 0 -200 -1 -8 0 -62 0 -120 1 -58 0 -112 0 -120 0 -8 -1
-170 -1 -360 -1 -190 1 -352 1 -360 0 -8 0 -62 0 -120 1 -58 0 -112 0 -120 0
-8 -1 -170 -1 -360 -1 -190 1 -352 1 -360 0 -8 0 -62 0 -120 1 -58 0 -112 0
-120 0 -8 -1 -98 -1 -200 0 -102 0 -192 0 -200 -1 -8 0 -62 0 -120 1 -58 0
-112 0 -120 0 -8 -1 -170 -1 -360 -1 -190 1 -352 1 -360 0 -8 0 -62 0 -120 1
-58 0 -112 0 -120 0 -8 -1 -170 -1 -360 -1 -190 1 -352 1 -360 0 -8 0 -62 0
-120 1 -58 0 -112 0 -120 0 -8 -1 -98 -1 -200 0 -102 0 -192 0 -200 -1 -8 0
-62 0 -120 1 -58 0 -112 0 -120 0 -8 -1 -170 -1 -360 -1 -190 1 -352 1 -360 0
-8 0 -62 0 -120 1 -58 0 -112 0 -120 0 -8 -1 -170 -1 -360 -1 -190 1 -352 1
-360 0 -18 0 -214 1 -285 2 -27 1 -53 4 -57 8 -8 8 -10 38 -8 124 1 32 -1 62
-4 67 -4 5 -2 12 2 15 5 3 6 25 3 48 -4 24 -4 57 -1 73 3 17 3 49 -1 73 -3 23
-3 45 1 47 4 2 4 24 1 47 -4 24 -4 57 -1 73 3 17 3 49 -1 73 -3 23 -3 45 1 47
4 2 4 24 1 47 -4 24 -4 57 -1 73 3 17 3 49 -1 73 -3 23 -3 45 1 47 4 2 4 24 1
47 -4 24 -4 57 -1 73 3 17 3 49 -1 73 -3 23 -3 45 1 47 4 2 4 24 1 47 -4 24
-4 57 -1 73 3 17 3 49 -1 73 -3 23 -3 45 1 47 4 2 4 24 1 47 -4 24 -4 57 -1
73 3 17 3 49 -1 73 -3 23 -3 45 1 47 4 2 4 24 1 47 -4 24 -4 57 -1 73 3 17 3
49 -1 73 -3 23 -3 45 1 47 4 2 4 24 1 47 -4 24 -4 57 -1 73 3 17 3 49 -1 73
-3 23 -3 45 1 47 4 2 4 24 1 47 -4 24 -4 57 -1 73 3 17 3 49 -1 73 -3 23 -3
45 1 47 4 2 4 24 1 47 -4 24 -4 57 -1 73 3 17 3 49 -1 73 -3 23 -3 45 1 47 4
2 4 24 1 47 -4 24 -4 57 -1 73 3 17 3 49 -1 73 -3 23 -3 45 1 47 4 2 4 24 1
47 -4 24 -4 57 -1 73 3 17 3 49 -1 73 -3 23 -3 45 1 47 4 2 4 24 1 47 -4 24
-4 57 -1 73 3 17 3 49 -1 73 -3 23 -3 45 1 47 4 2 4 24 1 47 -4 24 -4 57 -1
73 3 17 3 49 -1 73 -3 23 -3 45 1 47 4 2 4 24 1 47 -4 24 -4 57 -1 73 3 17 3
49 -1 73 -3 23 -3 45 1 47 4 2 4 24 1 47 -4 24 -4 57 -1 73 3 17 3 49 -1 73
-3 23 -3 45 1 47 4 2 4 24 1 47 -4 24 -4 57 -1 73 3 17 3 49 -1 73 -3 23 -3
45 1 47 4 2 4 24 1 47 -4 24 -4 57 -1 73 3 17 3 49 -1 73 -3 23 -3 45 1 47 4
2 4 24 1 47 -4 24 -4 57 -1 73 3 17 3 49 -1 73 -3 23 -3 45 1 47 4 2 4 24 1
47 -4 24 -4 57 -1 73 3 17 3 49 -1 73 -3 23 -3 45 1 47 4 2 4 24 1 47 -4 24
-4 57 -1 73 3 17 3 49 -1 73 -3 23 -3 45 1 47 4 2 4 24 1 47 -4 24 -4 57 -1
73 3 17 3 49 -1 73 -3 23 -3 45 1 47 4 2 4 24 1 47 -4 24 -4 57 -1 73 3 17 3
49 -1 73 -3 23 -3 45 1 47 4 2 4 24 1 47 -4 24 -4 57 -1 73 3 17 3 49 -1 73
-3 23 -3 45 1 47 4 2 4 24 1 47 -4 24 -4 57 -1 73 3 17 3 49 -1 72 -3 24 -3
45 0 48 3 3 4 24 2 45 -1 22 0 44 4 50 4 6 1583 10 4779 10 l4774 0 4 -31z"/>
<path d="M2362 6590 c-4 -3 -7 -581 -7 -1285 0 -704 -3 -1306 -7 -1337 -20
-152 -76 -238 -192 -291 -96 -43 -306 -41 -388 5 -13 7 -26 12 -30 13 -28 1
-110 110 -124 164 -2 9 -10 39 -18 68 -27 98 -43 237 -46 421 l-2 102 -338 0
c-261 0 -339 -3 -342 -12 -15 -42 14 -449 37 -528 2 -8 6 -26 9 -40 7 -42 34
-142 55 -201 47 -138 156 -324 214 -367 10 -8 30 -25 45 -39 52 -48 208 -128
292 -149 86 -21 106 -25 180 -38 157 -28 477 -23 610 8 14 3 36 8 50 11 204
39 412 172 531 341 63 89 130 249 154 369 20 100 40 312 36 383 -2 22 -2 43
-1 250 1 111 -2 207 -5 212 -3 6 -3 10 2 10 9 0 8 283 -1 306 -3 8 -2 14 2 14
4 0 6 51 4 113 -3 155 -2 208 3 218 3 4 1 10 -5 14 -6 4 -8 11 -4 16 3 6 5 86
5 177 -2 223 -1 263 4 273 3 4 1 10 -5 14 -6 4 -8 11 -4 16 3 6 5 86 5 177 -2
223 -1 263 4 273 3 4 1 10 -5 14 -6 4 -7 11 -4 17 8 12 8 217 1 225 -3 3 -2
15 3 27 4 13 5 27 2 32 -7 10 -708 14 -720 4z"/>
<path d="M4229 6552 c-11 -24 -19 -46 -19 -49 0 -3 -37 -107 -81 -232 -45
-124 -85 -237 -90 -251 -4 -14 -25 -74 -48 -135 -66 -182 -120 -334 -161 -450
-38 -110 -103 -292 -141 -395 -11 -30 -26 -73 -33 -95 -8 -22 -25 -70 -39
-107 -14 -38 -24 -68 -20 -68 3 0 1 -6 -4 -12 -6 -7 -23 -49 -38 -93 -15 -44
-42 -120 -60 -170 -35 -95 -89 -248 -255 -715 -55 -157 -107 -300 -115 -318
-8 -18 -15 -39 -15 -47 0 -9 -4 -23 -10 -33 -5 -9 -28 -68 -49 -129 l-40 -113
373 0 c287 0 376 3 383 13 5 6 60 166 123 354 l115 343 637 0 636 0 32 -102
c17 -57 34 -112 38 -123 3 -11 7 -22 7 -25 1 -3 4 -12 8 -20 6 -15 60 -188 63
-202 1 -5 2 -9 4 -10 1 -2 3 -10 5 -18 2 -8 17 -58 33 -110 l30 -95 391 -3
c215 -1 391 0 391 2 0 2 -7 23 -16 47 -9 24 -17 49 -18 54 -2 6 -6 17 -9 25
-5 14 -29 81 -98 278 -17 48 -34 96 -39 107 -5 11 -20 54 -34 95 -20 60 -75
217 -109 310 -3 8 -10 29 -15 45 -6 17 -31 89 -57 160 -26 72 -48 135 -49 142
-1 7 -5 16 -9 19 -4 4 -7 14 -7 22 0 8 -6 28 -14 45 -7 18 -18 46 -24 62 -51
146 -74 212 -79 225 -4 8 -7 18 -8 23 -2 4 -3 8 -5 10 -1 1 -3 9 -5 17 -2 8
-18 53 -35 100 -17 47 -38 103 -45 125 -7 22 -36 103 -63 180 -28 77 -71 199
-97 270 -25 72 -48 137 -50 145 -2 8 -4 16 -5 18 -2 1 -3 5 -5 10 -1 4 -6 18
-12 32 -27 69 -91 262 -89 271 0 3 -4 12 -10 20 -6 8 -19 39 -28 69 -10 30
-21 64 -26 75 -11 25 -51 136 -55 150 -1 6 -5 17 -8 25 -4 8 -25 69 -48 135
-23 66 -45 124 -51 130 -5 6 -156 10 -410 10 l-401 0 -18 -43z m545 -1152 c1
-8 6 -22 9 -30 3 -8 28 -89 57 -180 28 -91 55 -176 60 -190 5 -14 32 -99 60
-190 29 -91 63 -199 77 -240 14 -41 29 -86 33 -100 l7 -25 -436 1 c-373 0
-436 2 -434 15 0 8 20 70 43 139 60 182 377 1151 386 1180 6 20 20 -13 71
-170 35 -107 65 -202 67 -210z"/>
<path d="M6374 6591 c-2 -2 -4 -780 -4 -1728 l0 -1723 334 0 c310 0 334 1 337
18 3 9 4 559 4 1222 l-1 1204 22 -48 c12 -27 26 -58 29 -70 9 -27 8 -24 29
-71 10 -22 27 -62 38 -90 18 -46 54 -132 81 -195 6 -14 11 -27 12 -30 5 -14
18 -48 30 -75 26 -56 174 -420 189 -461 8 -23 19 -50 24 -60 11 -19 56 -127
109 -259 15 -38 27 -73 25 -77 -1 -5 2 -8 8 -8 5 0 10 -7 10 -15 0 -8 4 -23
10 -33 5 -9 62 -145 126 -302 64 -157 122 -298 129 -315 28 -67 65 -155 100
-243 l38 -92 361 2 361 3 0 1722 c0 1523 -2 1722 -15 1725 -8 2 -159 4 -335 3
l-320 0 -2 -1180 c-1 -649 -2 -1189 -3 -1200 0 -11 -30 52 -66 140 -35 88 -71
174 -79 192 -8 17 -15 34 -15 38 0 4 -7 21 -15 38 -13 30 -74 181 -197 487
-28 69 -57 141 -65 160 -20 46 -25 60 -63 155 -29 75 -36 92 -60 148 -5 12
-20 49 -33 82 -13 33 -28 69 -32 80 -4 11 -9 25 -11 30 -3 10 -119 295 -134
330 -5 11 -29 70 -53 130 -48 120 -60 148 -88 212 -11 24 -19 49 -19 57 0 8
-4 17 -9 21 -5 3 -12 19 -16 35 -4 16 -12 33 -18 37 -12 8 -745 11 -753 4z"/>
</g>
</svg>
